<mxfile host="Electron" modified="2020-10-17T08:11:41.963Z" agent="5.0 (X11; Linux x86_64) AppleWebKit/537.36 (KHTML, like Gecko) draw.io/13.6.2 Chrome/83.0.4103.122 Electron/9.2.0 Safari/537.36" etag="27P6M3FOC01FHHp-2rrt" compressed="false" version="13.6.2" type="device">
  <diagram id="f80tpMSeLRQ-L9lKVjwY" name="Page-1">
    <mxGraphModel dx="5381" dy="1085" grid="1" gridSize="10" guides="1" tooltips="1" connect="1" arrows="1" fold="1" page="1" pageScale="1" pageWidth="1169" pageHeight="827" math="0" shadow="0">
      <root>
        <mxCell id="0" />
        <mxCell id="1" parent="0" />
        <mxCell id="jDIYAommFn_w5E8CbMxw-1" value="" style="rounded=0;whiteSpace=wrap;html=1;fillColor=#dae8fc;strokeColor=#6c8ebf;" vertex="1" parent="1">
          <mxGeometry x="80" y="800" width="160" height="40" as="geometry" />
        </mxCell>
        <mxCell id="jDIYAommFn_w5E8CbMxw-2" value="" style="rounded=0;whiteSpace=wrap;html=1;fillColor=#dae8fc;strokeColor=#6c8ebf;" vertex="1" parent="1">
          <mxGeometry x="240" y="800" width="160" height="40" as="geometry" />
        </mxCell>
        <mxCell id="jDIYAommFn_w5E8CbMxw-3" value="" style="rounded=0;whiteSpace=wrap;html=1;fillColor=#d5e8d4;strokeColor=#82b366;" vertex="1" parent="1">
          <mxGeometry x="400" y="800" width="80" height="40" as="geometry" />
        </mxCell>
        <mxCell id="jDIYAommFn_w5E8CbMxw-4" value="" style="rounded=0;whiteSpace=wrap;html=1;fillColor=#d5e8d4;strokeColor=#82b366;" vertex="1" parent="1">
          <mxGeometry x="480" y="800" width="80" height="40" as="geometry" />
        </mxCell>
        <mxCell id="jDIYAommFn_w5E8CbMxw-5" value="" style="rounded=0;whiteSpace=wrap;html=1;fillColor=#d5e8d4;strokeColor=#82b366;" vertex="1" parent="1">
          <mxGeometry x="560" y="800" width="80" height="40" as="geometry" />
        </mxCell>
        <mxCell id="jDIYAommFn_w5E8CbMxw-6" value="" style="rounded=0;whiteSpace=wrap;html=1;fillColor=#d5e8d4;strokeColor=#82b366;" vertex="1" parent="1">
          <mxGeometry x="720" y="800" width="80" height="40" as="geometry" />
        </mxCell>
        <mxCell id="jDIYAommFn_w5E8CbMxw-7" value="" style="rounded=0;whiteSpace=wrap;html=1;fillColor=#d5e8d4;strokeColor=#82b366;" vertex="1" parent="1">
          <mxGeometry x="800" y="800" width="80" height="40" as="geometry" />
        </mxCell>
        <mxCell id="jDIYAommFn_w5E8CbMxw-8" value="" style="rounded=0;whiteSpace=wrap;html=1;fillColor=#dae8fc;strokeColor=#6c8ebf;" vertex="1" parent="1">
          <mxGeometry x="880" y="800" width="160" height="40" as="geometry" />
        </mxCell>
        <mxCell id="jDIYAommFn_w5E8CbMxw-9" value="" style="rounded=0;whiteSpace=wrap;html=1;fillColor=#f8cecc;strokeColor=#b85450;" vertex="1" parent="1">
          <mxGeometry x="640" y="800" width="40" height="40" as="geometry" />
        </mxCell>
        <mxCell id="jDIYAommFn_w5E8CbMxw-11" value="" style="rounded=0;whiteSpace=wrap;html=1;fillColor=#f8cecc;strokeColor=#b85450;" vertex="1" parent="1">
          <mxGeometry x="680" y="800" width="40" height="40" as="geometry" />
        </mxCell>
        <mxCell id="jDIYAommFn_w5E8CbMxw-12" value="level 0" style="text;html=1;strokeColor=none;fillColor=none;align=center;verticalAlign=middle;whiteSpace=wrap;rounded=0;fontSize=20;" vertex="1" parent="1">
          <mxGeometry y="865" width="60" height="20" as="geometry" />
        </mxCell>
        <mxCell id="jDIYAommFn_w5E8CbMxw-13" value="level 1" style="text;html=1;strokeColor=none;fillColor=none;align=center;verticalAlign=middle;whiteSpace=wrap;rounded=0;fontSize=20;" vertex="1" parent="1">
          <mxGeometry y="930" width="60" height="20" as="geometry" />
        </mxCell>
        <mxCell id="jDIYAommFn_w5E8CbMxw-14" value="level 2" style="text;html=1;strokeColor=none;fillColor=none;align=center;verticalAlign=middle;whiteSpace=wrap;rounded=0;fontSize=20;" vertex="1" parent="1">
          <mxGeometry y="990" width="60" height="20" as="geometry" />
        </mxCell>
        <mxCell id="jDIYAommFn_w5E8CbMxw-15" value="" style="endArrow=none;html=1;" edge="1" parent="1">
          <mxGeometry width="50" height="50" relative="1" as="geometry">
            <mxPoint x="80" y="900" as="sourcePoint" />
            <mxPoint x="80" y="860" as="targetPoint" />
          </mxGeometry>
        </mxCell>
        <mxCell id="jDIYAommFn_w5E8CbMxw-16" value="" style="endArrow=none;html=1;fontSize=20;" edge="1" parent="1">
          <mxGeometry width="50" height="50" relative="1" as="geometry">
            <mxPoint x="239.52" y="900" as="sourcePoint" />
            <mxPoint x="239.52" y="860" as="targetPoint" />
          </mxGeometry>
        </mxCell>
        <mxCell id="jDIYAommFn_w5E8CbMxw-17" value="" style="endArrow=none;html=1;fontSize=20;" edge="1" parent="1">
          <mxGeometry width="50" height="50" relative="1" as="geometry">
            <mxPoint x="400" y="900" as="sourcePoint" />
            <mxPoint x="400" y="860" as="targetPoint" />
          </mxGeometry>
        </mxCell>
        <mxCell id="jDIYAommFn_w5E8CbMxw-18" value="" style="endArrow=none;html=1;fontSize=20;" edge="1" parent="1">
          <mxGeometry width="50" height="50" relative="1" as="geometry">
            <mxPoint x="560" y="900" as="sourcePoint" />
            <mxPoint x="560" y="860" as="targetPoint" />
          </mxGeometry>
        </mxCell>
        <mxCell id="jDIYAommFn_w5E8CbMxw-19" value="" style="endArrow=none;html=1;fontSize=20;" edge="1" parent="1">
          <mxGeometry width="50" height="50" relative="1" as="geometry">
            <mxPoint x="719.52" y="900" as="sourcePoint" />
            <mxPoint x="719.52" y="860" as="targetPoint" />
          </mxGeometry>
        </mxCell>
        <mxCell id="jDIYAommFn_w5E8CbMxw-20" value="" style="endArrow=none;html=1;fontSize=20;" edge="1" parent="1">
          <mxGeometry width="50" height="50" relative="1" as="geometry">
            <mxPoint x="880" y="900" as="sourcePoint" />
            <mxPoint x="880" y="860" as="targetPoint" />
          </mxGeometry>
        </mxCell>
        <mxCell id="jDIYAommFn_w5E8CbMxw-21" value="" style="endArrow=none;html=1;fontSize=20;" edge="1" parent="1">
          <mxGeometry width="50" height="50" relative="1" as="geometry">
            <mxPoint x="1040" y="900" as="sourcePoint" />
            <mxPoint x="1040" y="860" as="targetPoint" />
          </mxGeometry>
        </mxCell>
        <mxCell id="jDIYAommFn_w5E8CbMxw-22" value="" style="endArrow=none;html=1;" edge="1" parent="1">
          <mxGeometry width="50" height="50" relative="1" as="geometry">
            <mxPoint x="79.52" y="960" as="sourcePoint" />
            <mxPoint x="79.52" y="920" as="targetPoint" />
          </mxGeometry>
        </mxCell>
        <mxCell id="jDIYAommFn_w5E8CbMxw-23" value="" style="endArrow=none;html=1;fontSize=20;" edge="1" parent="1">
          <mxGeometry width="50" height="50" relative="1" as="geometry">
            <mxPoint x="239.04" y="960" as="sourcePoint" />
            <mxPoint x="239.04" y="920" as="targetPoint" />
          </mxGeometry>
        </mxCell>
        <mxCell id="jDIYAommFn_w5E8CbMxw-24" value="" style="endArrow=none;html=1;fontSize=20;" edge="1" parent="1">
          <mxGeometry width="50" height="50" relative="1" as="geometry">
            <mxPoint x="399.51999999999975" y="960" as="sourcePoint" />
            <mxPoint x="399.51999999999975" y="920" as="targetPoint" />
          </mxGeometry>
        </mxCell>
        <mxCell id="jDIYAommFn_w5E8CbMxw-25" value="" style="endArrow=none;html=1;fontSize=20;" edge="1" parent="1">
          <mxGeometry width="50" height="50" relative="1" as="geometry">
            <mxPoint x="559.52" y="960" as="sourcePoint" />
            <mxPoint x="559.52" y="920" as="targetPoint" />
          </mxGeometry>
        </mxCell>
        <mxCell id="jDIYAommFn_w5E8CbMxw-26" value="" style="endArrow=none;html=1;fontSize=20;" edge="1" parent="1">
          <mxGeometry width="50" height="50" relative="1" as="geometry">
            <mxPoint x="719.04" y="960" as="sourcePoint" />
            <mxPoint x="719.04" y="920" as="targetPoint" />
          </mxGeometry>
        </mxCell>
        <mxCell id="jDIYAommFn_w5E8CbMxw-27" value="" style="endArrow=none;html=1;fontSize=20;" edge="1" parent="1">
          <mxGeometry width="50" height="50" relative="1" as="geometry">
            <mxPoint x="879.52" y="960" as="sourcePoint" />
            <mxPoint x="879.52" y="920" as="targetPoint" />
          </mxGeometry>
        </mxCell>
        <mxCell id="jDIYAommFn_w5E8CbMxw-28" value="" style="endArrow=none;html=1;fontSize=20;" edge="1" parent="1">
          <mxGeometry width="50" height="50" relative="1" as="geometry">
            <mxPoint x="1039.52" y="960" as="sourcePoint" />
            <mxPoint x="1039.52" y="920" as="targetPoint" />
          </mxGeometry>
        </mxCell>
        <mxCell id="jDIYAommFn_w5E8CbMxw-29" value="" style="endArrow=none;html=1;fontSize=20;" edge="1" parent="1">
          <mxGeometry width="50" height="50" relative="1" as="geometry">
            <mxPoint x="159.75999999999996" y="960" as="sourcePoint" />
            <mxPoint x="159.75999999999996" y="920" as="targetPoint" />
          </mxGeometry>
        </mxCell>
        <mxCell id="jDIYAommFn_w5E8CbMxw-30" value="" style="endArrow=none;html=1;fontSize=20;" edge="1" parent="1">
          <mxGeometry width="50" height="50" relative="1" as="geometry">
            <mxPoint x="319.76" y="960" as="sourcePoint" />
            <mxPoint x="319.76" y="920" as="targetPoint" />
          </mxGeometry>
        </mxCell>
        <mxCell id="jDIYAommFn_w5E8CbMxw-31" value="" style="endArrow=none;html=1;fontSize=20;" edge="1" parent="1">
          <mxGeometry width="50" height="50" relative="1" as="geometry">
            <mxPoint x="479.52" y="960" as="sourcePoint" />
            <mxPoint x="479.52" y="920" as="targetPoint" />
          </mxGeometry>
        </mxCell>
        <mxCell id="jDIYAommFn_w5E8CbMxw-32" value="" style="endArrow=none;html=1;fontSize=20;" edge="1" parent="1">
          <mxGeometry width="50" height="50" relative="1" as="geometry">
            <mxPoint x="640" y="960" as="sourcePoint" />
            <mxPoint x="640" y="920" as="targetPoint" />
          </mxGeometry>
        </mxCell>
        <mxCell id="jDIYAommFn_w5E8CbMxw-33" value="" style="endArrow=none;html=1;fontSize=20;" edge="1" parent="1">
          <mxGeometry width="50" height="50" relative="1" as="geometry">
            <mxPoint x="799.52" y="960" as="sourcePoint" />
            <mxPoint x="799.52" y="920" as="targetPoint" />
          </mxGeometry>
        </mxCell>
        <mxCell id="jDIYAommFn_w5E8CbMxw-34" value="" style="endArrow=none;html=1;fontSize=20;" edge="1" parent="1">
          <mxGeometry width="50" height="50" relative="1" as="geometry">
            <mxPoint x="959.76" y="960" as="sourcePoint" />
            <mxPoint x="959.76" y="920" as="targetPoint" />
          </mxGeometry>
        </mxCell>
        <mxCell id="jDIYAommFn_w5E8CbMxw-36" value="0" style="text;html=1;strokeColor=none;fillColor=none;align=center;verticalAlign=middle;whiteSpace=wrap;rounded=0;fontSize=20;" vertex="1" parent="1">
          <mxGeometry x="140" y="865" width="40" height="20" as="geometry" />
        </mxCell>
        <mxCell id="jDIYAommFn_w5E8CbMxw-37" value="0" style="text;html=1;strokeColor=none;fillColor=none;align=center;verticalAlign=middle;whiteSpace=wrap;rounded=0;fontSize=20;" vertex="1" parent="1">
          <mxGeometry x="100" y="930" width="40" height="20" as="geometry" />
        </mxCell>
        <mxCell id="jDIYAommFn_w5E8CbMxw-38" value="1" style="text;html=1;strokeColor=none;fillColor=none;align=center;verticalAlign=middle;whiteSpace=wrap;rounded=0;fontSize=20;" vertex="1" parent="1">
          <mxGeometry x="300" y="865" width="40" height="20" as="geometry" />
        </mxCell>
        <mxCell id="jDIYAommFn_w5E8CbMxw-39" value="2&lt;span style=&quot;color: rgba(0, 0, 0, 0); font-family: monospace; font-size: 20px;&quot;&gt;%3CmxGraphModel%3E%3Croot%3E%3CmxCell%20id%3D%220%22%2F%3E%3CmxCell%20id%3D%221%22%20parent%3D%220%22%2F%3E%3CmxCell%20id%3D%222%22%20value%3D%220%22%20style%3D%22text%3Bhtml%3D1%3BstrokeColor%3Dnone%3BfillColor%3Dnone%3Balign%3Dcenter%3BverticalAlign%3Dmiddle%3BwhiteSpace%3Dwrap%3Brounded%3D0%3B%22%20vertex%3D%221%22%20parent%3D%221%22%3E%3CmxGeometry%20x%3D%22140%22%20y%3D%22865%22%20width%3D%2240%22%20height%3D%2220%22%20as%3D%22geometry%22%2F%3E%3C%2FmxCell%3E%3C%2Froot%3E%3C%2FmxGraphModel%3E&lt;/span&gt;" style="text;html=1;strokeColor=none;fillColor=none;align=center;verticalAlign=middle;whiteSpace=wrap;rounded=0;fontSize=20;" vertex="1" parent="1">
          <mxGeometry x="460" y="865" width="40" height="20" as="geometry" />
        </mxCell>
        <mxCell id="jDIYAommFn_w5E8CbMxw-40" value="3" style="text;html=1;strokeColor=none;fillColor=none;align=center;verticalAlign=middle;whiteSpace=wrap;rounded=0;fontSize=20;" vertex="1" parent="1">
          <mxGeometry x="620" y="865" width="40" height="20" as="geometry" />
        </mxCell>
        <mxCell id="jDIYAommFn_w5E8CbMxw-41" value="4" style="text;html=1;strokeColor=none;fillColor=none;align=center;verticalAlign=middle;whiteSpace=wrap;rounded=0;fontSize=20;" vertex="1" parent="1">
          <mxGeometry x="780" y="865" width="40" height="20" as="geometry" />
        </mxCell>
        <mxCell id="jDIYAommFn_w5E8CbMxw-42" value="5" style="text;html=1;strokeColor=none;fillColor=none;align=center;verticalAlign=middle;whiteSpace=wrap;rounded=0;fontSize=20;" vertex="1" parent="1">
          <mxGeometry x="940" y="865" width="40" height="20" as="geometry" />
        </mxCell>
        <mxCell id="jDIYAommFn_w5E8CbMxw-43" value="1" style="text;html=1;strokeColor=none;fillColor=none;align=center;verticalAlign=middle;whiteSpace=wrap;rounded=0;fontSize=20;" vertex="1" parent="1">
          <mxGeometry x="180" y="930" width="40" height="20" as="geometry" />
        </mxCell>
        <mxCell id="jDIYAommFn_w5E8CbMxw-44" value="2" style="text;html=1;strokeColor=none;fillColor=none;align=center;verticalAlign=middle;whiteSpace=wrap;rounded=0;fontSize=20;" vertex="1" parent="1">
          <mxGeometry x="260" y="930" width="40" height="20" as="geometry" />
        </mxCell>
        <mxCell id="jDIYAommFn_w5E8CbMxw-45" value="3" style="text;html=1;strokeColor=none;fillColor=none;align=center;verticalAlign=middle;whiteSpace=wrap;rounded=0;fontSize=20;" vertex="1" parent="1">
          <mxGeometry x="340" y="930" width="40" height="20" as="geometry" />
        </mxCell>
        <mxCell id="jDIYAommFn_w5E8CbMxw-46" value="4" style="text;html=1;strokeColor=none;fillColor=none;align=center;verticalAlign=middle;whiteSpace=wrap;rounded=0;fontSize=20;" vertex="1" parent="1">
          <mxGeometry x="420" y="930" width="40" height="20" as="geometry" />
        </mxCell>
        <mxCell id="jDIYAommFn_w5E8CbMxw-47" value="5" style="text;html=1;strokeColor=none;fillColor=none;align=center;verticalAlign=middle;whiteSpace=wrap;rounded=0;fontSize=20;" vertex="1" parent="1">
          <mxGeometry x="500" y="930" width="40" height="20" as="geometry" />
        </mxCell>
        <mxCell id="jDIYAommFn_w5E8CbMxw-48" value="6" style="text;html=1;strokeColor=none;fillColor=none;align=center;verticalAlign=middle;whiteSpace=wrap;rounded=0;fontSize=20;" vertex="1" parent="1">
          <mxGeometry x="580" y="930" width="40" height="20" as="geometry" />
        </mxCell>
        <mxCell id="jDIYAommFn_w5E8CbMxw-49" value="7" style="text;html=1;strokeColor=none;fillColor=none;align=center;verticalAlign=middle;whiteSpace=wrap;rounded=0;fontSize=20;" vertex="1" parent="1">
          <mxGeometry x="660" y="930" width="40" height="20" as="geometry" />
        </mxCell>
        <mxCell id="jDIYAommFn_w5E8CbMxw-50" value="8" style="text;html=1;strokeColor=none;fillColor=none;align=center;verticalAlign=middle;whiteSpace=wrap;rounded=0;fontSize=20;" vertex="1" parent="1">
          <mxGeometry x="740" y="930" width="40" height="20" as="geometry" />
        </mxCell>
        <mxCell id="jDIYAommFn_w5E8CbMxw-51" value="9" style="text;html=1;strokeColor=none;fillColor=none;align=center;verticalAlign=middle;whiteSpace=wrap;rounded=0;fontSize=20;" vertex="1" parent="1">
          <mxGeometry x="820" y="930" width="40" height="20" as="geometry" />
        </mxCell>
        <mxCell id="jDIYAommFn_w5E8CbMxw-52" value="10" style="text;html=1;strokeColor=none;fillColor=none;align=center;verticalAlign=middle;whiteSpace=wrap;rounded=0;fontSize=20;" vertex="1" parent="1">
          <mxGeometry x="900" y="930" width="40" height="20" as="geometry" />
        </mxCell>
        <mxCell id="jDIYAommFn_w5E8CbMxw-53" value="11" style="text;html=1;strokeColor=none;fillColor=none;align=center;verticalAlign=middle;whiteSpace=wrap;rounded=0;fontSize=20;" vertex="1" parent="1">
          <mxGeometry x="980" y="930" width="40" height="20" as="geometry" />
        </mxCell>
        <mxCell id="jDIYAommFn_w5E8CbMxw-54" value="" style="endArrow=none;html=1;fontSize=20;" edge="1" parent="1">
          <mxGeometry width="50" height="50" relative="1" as="geometry">
            <mxPoint x="719.04" y="1020" as="sourcePoint" />
            <mxPoint x="719.04" y="980" as="targetPoint" />
          </mxGeometry>
        </mxCell>
        <mxCell id="jDIYAommFn_w5E8CbMxw-55" value="" style="endArrow=none;html=1;fontSize=20;" edge="1" parent="1">
          <mxGeometry width="50" height="50" relative="1" as="geometry">
            <mxPoint x="640" y="1020" as="sourcePoint" />
            <mxPoint x="640" y="980" as="targetPoint" />
          </mxGeometry>
        </mxCell>
        <mxCell id="jDIYAommFn_w5E8CbMxw-57" value="" style="endArrow=none;html=1;fontSize=20;" edge="1" parent="1">
          <mxGeometry width="50" height="50" relative="1" as="geometry">
            <mxPoint x="679.52" y="1020" as="sourcePoint" />
            <mxPoint x="679.52" y="980" as="targetPoint" />
          </mxGeometry>
        </mxCell>
        <mxCell id="jDIYAommFn_w5E8CbMxw-58" value="15" style="text;html=1;strokeColor=none;fillColor=none;align=center;verticalAlign=middle;whiteSpace=wrap;rounded=0;fontSize=20;" vertex="1" parent="1">
          <mxGeometry x="680" y="990" width="40" height="20" as="geometry" />
        </mxCell>
        <mxCell id="jDIYAommFn_w5E8CbMxw-59" value="14" style="text;html=1;strokeColor=none;fillColor=none;align=center;verticalAlign=middle;whiteSpace=wrap;rounded=0;fontSize=20;" vertex="1" parent="1">
          <mxGeometry x="640" y="990" width="40" height="20" as="geometry" />
        </mxCell>
      </root>
    </mxGraphModel>
  </diagram>
</mxfile>
